# xmcd CD database file
#
# Track frame offsets:
#	150
#	24520
#	63489
#	80475
#	107155
#	128643
#	141031
#	158373
#	178110
#	194814
#	223761
#	245898
#
# Disc length: 3543 seconds
#
# Revision: 0
# Processed by: cddbd v1.5.2PL0 Copyright (c) Steve Scherf et al.
# Submitted via: CDex 1.70beta2
#
DISCID=ae0dd50c
DTITLE=Peggy Lee Band - New Code
DYEAR=2008
DGENRE=Jazz
TTITLE0=All I Really Want To Do
TTITLE1=Preparations
TTITLE2=Offshoot 1
TTITLE3=Not A Wake Up Call
TTITLE4=Floating Island
TTITLE5=Offshoot 2
TTITLE6=Scribble Town
TTITLE7=Tug
TTITLE8=Offshoot 3
TTITLE9=Walk Me Through
TTITLE10=Shifting Tide
TTITLE11=Lost In The Stars
EXTD=YEAR: 2008
EXTT0=
EXTT1=
EXTT2=
EXTT3=
EXTT4=
EXTT5=
EXTT6=
EXTT7=
EXTT8=
EXTT9=
EXTT10=
EXTT11=
PLAYORDER=
